<svg width="13" height="13" viewBox="0 0 13 13" fill="none" xmlns="http://www.w3.org/2000/svg">
<g clip-path="url(#clip0_179_145)">
<path d="M8.57463 5.95671C8.4496 5.95671 8.32739 5.99378 8.22344 6.06324C8.11948 6.1327 8.03846 6.23143 7.99062 6.34693C7.94278 6.46244 7.93026 6.58954 7.95465 6.71216C7.97904 6.83478 8.03924 6.94741 8.12765 7.03582C8.21605 7.12422 8.32869 7.18442 8.45131 7.20882C8.57393 7.23321 8.70103 7.22069 8.81653 7.17284C8.93204 7.125 9.03076 7.04398 9.10022 6.94003C9.16968 6.83607 9.20675 6.71386 9.20675 6.58884C9.20675 6.42119 9.14015 6.2604 9.02161 6.14186C8.90306 6.02331 8.74228 5.95671 8.57463 5.95671ZM5.05379 6.58884C5.05379 6.46379 5.01671 6.34155 4.94722 6.23759C4.87774 6.13363 4.77898 6.05261 4.66345 6.00478C4.54791 5.95695 4.42078 5.94446 4.29815 5.9689C4.17551 5.99333 4.06288 6.05359 3.9745 6.14205C3.88611 6.23051 3.82595 6.34319 3.80162 6.46585C3.77729 6.5885 3.78989 6.71562 3.83782 6.83112C3.88574 6.94661 3.96685 7.0453 4.07087 7.11469C4.1749 7.18409 4.29716 7.22107 4.42221 7.22096C4.58977 7.22082 4.75041 7.15416 4.86884 7.03562C4.98727 6.91709 5.05379 6.75639 5.05379 6.58884ZM7.85042 8.34384C7.67805 8.5292 7.46938 8.67711 7.2374 8.77837C7.00541 8.87963 6.75507 8.93207 6.50195 8.93242C6.24883 8.93278 5.99834 8.88105 5.76607 8.78044C5.5338 8.67983 5.32472 8.53251 5.15183 8.34763C5.06162 8.23579 4.93067 8.16437 4.78779 8.14908C4.64492 8.13379 4.50182 8.17589 4.38998 8.26611C4.27814 8.35632 4.20672 8.48727 4.19144 8.63015C4.17615 8.77303 4.21824 8.91612 4.30846 9.02796C4.58278 9.33853 4.92 9.58724 5.29774 9.75758C5.67548 9.92792 6.08513 10.016 6.4995 10.016C6.91388 10.016 7.32352 9.92792 7.70126 9.75758C8.07901 9.58724 8.41622 9.33853 8.69054 9.02796C8.77719 8.91622 8.81671 8.77504 8.80066 8.63456C8.78461 8.49408 8.71427 8.36544 8.60465 8.27612C8.49504 8.1868 8.35485 8.14389 8.21402 8.15654C8.07319 8.16919 7.9429 8.23641 7.85096 8.34384H7.85042ZM6.50004 0.272461C5.26803 0.272461 4.06369 0.637795 3.0393 1.32226C2.01492 2.00673 1.21651 2.9796 0.745044 4.11783C0.273573 5.25606 0.150215 6.50854 0.390569 7.71688C0.630922 8.92522 1.22419 10.0351 2.09536 10.9063C2.96652 11.7775 4.07645 12.3707 5.28479 12.6111C6.49313 12.8515 7.74561 12.7281 8.88384 12.2566C10.0221 11.7852 10.9949 10.9867 11.6794 9.96237C12.3639 8.93799 12.7292 7.73364 12.7292 6.50163C12.7273 4.85012 12.0705 3.26679 10.9027 2.099C9.73488 0.931209 8.15155 0.274325 6.50004 0.272461ZM6.50004 11.6475C5.48229 11.6475 4.4874 11.3457 3.64117 10.7802C2.79494 10.2148 2.13539 9.41113 1.74591 8.47085C1.35644 7.53057 1.25453 6.49592 1.45309 5.49773C1.65164 4.49953 2.14173 3.58263 2.86139 2.86297C3.58105 2.14332 4.49795 1.65322 5.49614 1.45467C6.49434 1.25612 7.52899 1.35802 8.46927 1.7475C9.40955 2.13697 10.2132 2.79653 10.7786 3.64276C11.3441 4.48898 11.6459 5.48388 11.6459 6.50163C11.6444 7.86595 11.1018 9.17398 10.1371 10.1387C9.17239 11.1034 7.86436 11.646 6.50004 11.6475Z" fill="black"/>
</g>
<defs>
<clipPath id="clip0_179_145">
<rect width="13" height="13" fill="white"/>
</clipPath>
</defs>
</svg>
